# xmcd
#
# Track frame offsets:
#	150
#	14913
#	28308
#	43777
#	54969
#	65973
#	77996
#	89977
#	100728
#	113967
#	127491
#	144001
#	157749
#	168210
#	181099
#	195977
#	207924
#	218612
#	235725
#	250665
#	262306
#	275784
#
# Disc length: 3907 seconds
#
# Revision: 1
# Processed by: cddbd v1.5.1PL2 Copyright (c) Steve Scherf et al.
# Submitted via: audiograbber 1.83.01
#
DISCID=490f4116
DTITLE=Reader's Digest Folk and Country Jamboree - The Great Country Ballads 3/3
DYEAR=1900
DGENRE=
TTITLE0=P1 TakeMe Home Country Roads
TTITLE1=P2 Tennessee Waltz
TTITLE2=P3 HaveI Told You Lately That I Love You
TTITLE3=P4 Oh, Lonesome Me
TTITLE4=P5 King Of The Road
TTITLE5=P6 Stand By Your Man
TTITLE6=P7 Your Cheatin' Heart
TTITLE7=P8 Green Green Grass Of Home
TTITLE8=P9 Rose Garden
TTITLE9=P10 Rhinestone Cowboy
TTITLE10=P11 Honey
TTITLE11=P12 There Goes My Everything
TTITLE12=P13  BouquetOf Roses
TTITLE13=P14 1Can't Stop Loving You
TTITLE14=P15 Crazy
TTITLE15=P16  l'm Sorry
TTITLE16=P17 Release Me
TTITLE17=P18 For The Good Times
TTITLE18=P19 Me  And Bobby McGee
TTITLE19=P20 Help Me Make It Through The Night
TTITLE20=P21 I Will  Always Love You
TTITLE21=P22 I Believe ln You
EXTD=
EXTT0=
EXTT1=
EXTT2=
EXTT3=
EXTT4=
EXTT5=
EXTT6=
EXTT7=
EXTT8=
EXTT9=
EXTT10=
EXTT11=
EXTT12=
EXTT13=
EXTT14=
EXTT15=
EXTT16=
EXTT17=
EXTT18=
EXTT19=
EXTT20=
EXTT21=
PLAYORDER=
